<?xml version="1.0" encoding="UTF-8" ?>
<!DOCTYPE svg PUBLIC "-//W3C//DTD SVG 1.1//EN" "http://www.w3.org/Graphics/SVG/1.1/DTD/svg11.dtd">
<svg width="500pt" height="500pt" viewBox="0 0 500 500" version="1.1" xmlns="http://www.w3.org/2000/svg">
<g id="#ffffffff">
<path fill="#ffffff" opacity="1.00" d=" M 186.23 136.75 C 188.00 138.01 186.72 140.77 184.69 140.68 C 185.06 139.32 185.53 137.98 186.23 136.75 Z" />
<path fill="#ffffff" opacity="1.00" d=" M 204.61 330.85 C 204.43 333.50 203.11 335.80 200.65 336.95 C 202.06 334.98 203.37 332.94 204.61 330.85 Z" />
</g>
<g id="#020202ff">
<path fill="#020202" opacity="1.00" d=" M 117.34 114.01 C 117.62 112.43 119.30 111.08 120.88 111.81 C 123.99 113.82 126.66 116.45 129.72 118.56 C 132.04 116.59 134.34 114.59 136.78 112.76 C 137.88 111.55 139.50 111.55 140.98 111.90 C 141.18 112.70 141.58 114.30 141.77 115.10 C 139.07 118.51 134.26 120.15 132.65 124.32 C 136.96 122.66 139.49 118.14 143.97 116.95 C 140.36 120.08 136.27 122.69 133.15 126.34 C 137.62 126.74 142.12 126.24 146.58 126.69 C 148.07 126.68 149.10 128.54 148.55 129.87 C 148.21 131.13 147.82 132.39 147.43 133.65 C 143.64 142.24 140.14 150.97 136.78 159.74 C 136.68 160.00 136.48 160.50 136.37 160.76 C 134.25 165.25 132.53 169.91 130.68 174.52 C 130.50 174.90 130.13 175.64 129.95 176.02 C 130.70 176.02 132.20 176.01 132.95 176.01 C 139.29 176.09 145.65 175.73 151.98 176.28 C 152.72 177.95 152.54 179.78 152.52 181.56 C 143.03 181.42 133.44 182.35 124.03 180.76 C 122.86 177.66 124.99 174.81 126.00 172.00 C 131.25 158.79 136.88 145.73 141.96 132.45 C 130.47 132.12 118.82 133.56 107.48 131.33 C 107.44 129.79 106.58 127.35 108.69 126.79 C 116.72 126.10 124.82 126.77 132.88 126.45 C 133.44 123.47 130.04 125.06 128.52 124.44 C 125.88 122.86 123.71 120.64 121.32 118.72 C 119.79 117.34 117.79 116.18 117.34 114.01 Z" />
<path fill="#020202" opacity="1.00" d=" M 184.49 127.44 C 184.93 125.52 187.42 124.57 188.79 126.16 C 190.97 129.57 192.46 133.37 194.02 137.10 C 201.68 155.94 209.35 174.79 217.02 193.62 C 215.59 192.38 213.84 192.20 212.03 192.48 C 210.35 192.73 210.05 190.70 209.44 189.61 C 202.61 172.86 195.68 156.15 188.94 139.36 C 188.38 137.87 187.80 136.39 187.20 134.91 C 186.96 135.37 186.47 136.29 186.23 136.75 C 185.53 137.98 185.06 139.32 184.69 140.68 C 184.62 140.93 184.47 141.43 184.40 141.69 C 177.36 158.03 170.93 174.65 164.04 191.06 C 163.40 193.04 161.22 192.54 159.66 192.39 C 159.24 190.85 159.07 189.23 159.84 187.77 C 168.07 167.66 176.19 147.51 184.49 127.44 Z" />
<path fill="#020202" opacity="1.00" d=" M 364.49 127.43 C 364.90 125.64 367.34 124.59 368.68 125.99 C 371.32 130.14 373.17 134.72 375.01 139.26 C 382.39 157.40 389.89 175.50 397.11 193.70 C 395.36 190.88 391.26 194.11 390.05 191.04 C 382.21 172.54 375.15 153.70 366.94 135.36 C 359.24 153.62 351.91 172.05 344.36 190.38 C 343.94 192.22 341.46 193.61 340.00 192.00 C 338.36 190.70 339.47 188.66 340.06 187.13 C 348.29 167.26 356.27 147.29 364.49 127.43 Z" />
<path fill="#020202" opacity="1.00" d=" M 225.89 126.81 C 234.91 126.19 243.97 126.63 253.01 126.53 C 262.63 126.37 270.47 134.05 273.45 142.71 C 273.75 148.76 272.59 154.82 269.59 160.11 C 270.29 161.36 271.00 162.61 271.72 163.85 C 272.02 164.41 272.63 165.52 272.93 166.08 C 273.51 170.37 273.23 174.72 272.60 178.99 C 271.01 183.27 268.21 186.97 264.72 189.91 C 258.11 194.00 250.25 193.84 242.76 193.82 C 240.54 194.23 237.07 192.95 238.21 190.16 C 238.35 188.24 240.64 188.60 241.96 188.50 C 247.64 188.25 253.67 189.38 259.04 186.99 C 265.32 184.10 269.18 176.78 267.98 169.95 C 267.63 166.20 265.14 163.24 263.37 160.08 C 266.06 156.23 268.65 151.88 268.13 146.99 C 268.04 140.54 263.54 134.36 257.25 132.72 C 248.45 131.63 239.56 132.45 230.72 132.05 C 230.22 152.32 230.85 172.60 230.40 192.86 C 228.56 194.29 225.35 193.86 225.59 190.99 C 225.39 174.00 225.55 157.00 225.50 140.00 C 225.55 135.60 225.24 131.18 225.89 126.81 Z" />
<path fill="#020202" opacity="1.00" d=" M 107.94 139.09 C 114.62 138.96 121.31 138.92 127.99 139.06 C 130.46 138.99 131.07 142.02 129.86 143.73 C 125.52 152.72 122.15 162.15 118.25 171.34 C 116.27 176.66 113.53 181.72 112.21 187.27 L 112.10 187.78 L 112.63 187.86 C 113.11 187.92 114.07 188.04 114.55 188.10 C 126.01 188.50 137.49 188.13 148.95 188.27 C 150.17 188.37 152.28 188.25 152.31 190.01 C 152.43 191.86 153.31 193.40 154.69 194.61 C 140.84 194.29 126.97 194.58 113.12 194.45 C 110.41 194.19 107.81 193.31 105.20 192.59 C 105.06 189.44 106.74 186.69 107.82 183.85 C 112.07 173.42 116.30 162.99 120.57 152.56 C 121.57 150.00 122.93 147.50 122.99 144.68 C 118.10 144.52 113.12 144.97 108.33 143.83 C 106.65 142.67 107.26 140.61 107.94 139.09 Z" />
<path fill="#020202" opacity="1.00" d=" M 237.80 140.05 C 242.22 138.00 247.36 139.27 252.09 139.11 C 256.56 139.19 259.39 143.00 260.87 146.79 C 260.39 148.40 259.94 150.01 259.49 151.63 C 258.48 152.67 257.35 153.70 256.90 155.12 C 254.79 155.57 252.72 156.20 250.60 156.63 C 248.44 156.70 245.62 156.73 245.25 153.97 C 245.40 150.03 250.30 151.73 252.84 151.09 C 255.37 150.80 254.78 147.80 255.19 146.01 C 250.62 143.32 245.08 145.39 240.13 144.09 C 237.94 144.08 237.91 141.63 237.80 140.05 Z" />
<path fill="#020202" opacity="1.00" d=" M 184.56 159.00 C 185.70 158.66 186.83 158.32 187.97 157.99 C 191.20 162.97 194.46 168.52 194.68 174.58 C 189.80 174.84 184.87 174.89 180.04 174.06 C 179.82 172.54 180.07 171.05 180.53 169.61 C 182.91 169.52 185.29 169.51 187.67 169.41 C 186.58 165.96 184.19 162.76 184.56 159.00 Z" />
<path fill="#020202" opacity="1.00" d=" M 364.55 158.90 C 365.97 158.76 367.86 157.43 368.85 159.11 C 371.43 163.93 374.91 168.87 374.62 174.58 C 369.78 174.85 364.87 174.91 360.08 174.02 C 359.96 172.53 360.12 171.06 360.51 169.63 C 362.89 169.54 365.27 169.51 367.66 169.42 C 366.58 165.93 364.21 162.69 364.55 158.90 Z" />
<path fill="#020202" opacity="1.00" d=" M 238.14 164.24 C 243.28 163.44 248.59 163.48 253.73 164.17 C 257.73 164.80 259.63 168.59 261.05 171.93 C 259.75 174.78 258.79 178.21 255.88 179.84 C 253.23 181.54 249.94 181.00 246.97 181.09 C 245.69 180.80 245.36 179.26 245.28 178.16 C 246.07 174.70 250.35 176.56 252.85 175.74 C 255.54 175.34 255.03 172.04 254.77 170.09 C 249.37 169.01 243.77 169.84 238.37 168.44 C 238.16 167.05 238.09 165.64 238.14 164.24 Z" />
<path fill="#020202" opacity="1.00" d=" M 175.62 182.60 C 178.44 181.04 181.91 182.01 185.00 181.75 C 189.45 182.08 194.16 180.96 198.43 182.49 C 200.57 186.04 201.96 189.97 203.77 193.69 C 202.00 192.13 199.72 192.30 197.55 192.51 C 196.79 191.21 196.10 189.88 195.35 188.60 C 195.14 188.28 194.71 187.64 194.50 187.32 C 189.38 187.08 184.24 187.35 179.12 187.01 C 178.34 188.62 177.54 190.22 176.74 191.82 L 176.30 192.71 C 175.45 192.56 173.75 192.27 172.89 192.12 C 172.08 188.71 174.16 185.53 175.62 182.60 Z" />
<path fill="#020202" opacity="1.00" d=" M 353.38 187.41 C 354.43 185.26 354.89 181.69 357.99 181.83 C 364.82 181.90 371.74 181.21 378.51 182.32 C 379.71 185.09 381.17 187.74 382.71 190.33 C 381.36 191.54 379.69 193.38 377.68 192.41 C 376.44 190.92 375.65 189.13 374.68 187.47 C 369.48 187.45 364.26 187.75 359.09 187.15 C 358.05 189.14 357.51 193.49 354.39 192.53 C 351.91 192.04 352.48 189.03 353.38 187.41 Z" />
<path fill="#020202" opacity="1.00" d=" M 171.68 289.67 C 181.97 286.07 194.01 286.79 203.28 292.75 C 211.66 297.75 217.22 306.41 220.01 315.60 C 218.14 315.25 216.24 315.05 214.38 314.68 C 213.10 313.46 212.66 311.66 211.88 310.13 C 208.47 301.95 200.84 295.90 192.28 293.86 C 186.93 292.67 181.22 292.25 175.90 293.79 C 165.32 296.63 157.09 306.10 155.66 316.95 C 154.25 323.43 155.65 330.32 158.82 336.09 C 166.40 352.96 190.94 356.04 204.20 344.23 C 209.21 340.39 211.56 334.44 214.25 328.97 C 216.16 328.84 218.58 329.56 218.33 331.96 C 216.10 339.05 211.68 345.49 205.61 349.83 C 201.67 351.95 197.76 354.27 193.39 355.40 C 188.36 356.88 183.03 356.69 177.86 356.31 C 168.37 354.39 159.57 348.60 154.78 340.10 C 150.18 332.25 149.36 322.64 151.02 313.82 C 153.19 302.94 161.22 293.42 171.68 289.67 Z" />
<path fill="#020202" opacity="1.00" d=" M 253.86 288.84 C 265.68 285.49 279.17 288.26 288.14 296.82 C 293.97 301.78 297.07 308.90 300.08 315.74 C 298.44 314.08 296.29 314.66 294.25 314.85 C 292.60 314.05 292.34 311.91 291.50 310.44 C 287.94 301.66 279.59 295.14 270.25 293.60 C 263.71 292.36 256.44 292.26 250.50 295.64 C 240.21 300.53 234.12 312.06 234.97 323.30 C 234.72 328.21 236.43 332.98 238.92 337.14 C 245.94 351.21 265.50 355.07 278.64 347.67 C 284.61 344.50 289.39 339.17 291.82 332.85 C 292.58 331.40 293.03 329.02 295.07 329.00 C 296.93 328.77 298.25 330.91 297.59 332.56 C 294.94 341.23 288.51 348.43 280.58 352.69 C 273.41 355.76 265.64 357.34 257.83 356.38 C 249.98 354.79 242.47 350.88 237.39 344.58 C 230.03 335.87 228.26 323.50 230.81 312.62 C 233.46 301.31 242.60 291.78 253.86 288.84 Z" />
<path fill="#020202" opacity="1.00" d=" M 380.61 288.72 C 387.34 287.50 394.08 289.35 400.42 291.50 C 400.88 293.41 401.26 295.41 402.63 296.92 C 399.14 296.38 395.67 295.74 392.28 294.74 C 387.12 293.59 381.07 292.27 376.39 295.53 C 372.18 297.92 369.46 302.20 368.54 306.89 C 367.43 310.14 369.07 313.42 370.55 316.27 C 373.80 322.49 381.21 324.12 387.04 326.96 C 390.45 328.33 392.79 331.53 393.59 335.05 C 393.50 339.38 389.89 342.40 386.04 343.57 C 378.67 344.64 370.93 342.43 365.06 337.92 C 363.11 336.74 364.67 334.60 365.42 333.21 C 369.63 334.05 373.04 337.06 377.33 337.74 C 380.74 338.59 385.88 339.48 387.88 335.74 C 388.41 333.12 385.84 331.97 383.87 331.17 C 377.65 328.50 370.84 325.99 366.67 320.33 C 362.82 314.97 362.57 307.72 364.71 301.64 C 367.10 294.83 373.53 289.81 380.61 288.72 Z" />
<path fill="#020202" opacity="1.00" d=" M 165.83 312.08 C 170.68 300.08 187.64 296.53 197.49 304.50 C 201.38 307.40 204.07 311.61 205.93 316.03 C 206.67 321.02 205.81 326.01 204.61 330.85 C 203.37 332.94 202.06 334.98 200.65 336.95 C 195.56 341.02 189.61 344.24 182.93 344.27 C 175.75 342.95 168.83 338.87 165.74 332.03 C 165.13 329.24 169.45 327.73 170.65 330.33 C 173.38 334.66 177.68 338.20 182.99 338.45 C 191.66 339.74 200.11 332.52 200.83 323.94 C 201.81 316.87 197.64 309.26 190.85 306.80 C 187.36 306.05 183.48 306.15 180.41 308.15 C 176.54 309.92 174.61 313.97 171.23 316.35 C 173.14 311.56 177.61 308.96 181.49 305.98 C 176.31 306.13 172.99 310.43 170.19 314.21 C 168.95 316.58 165.03 314.39 165.83 312.08 Z" />
<path fill="#020202" opacity="1.00" d=" M 380.64 301.76 C 386.67 299.62 393.19 301.85 398.88 304.07 C 399.35 306.01 399.94 307.91 400.82 309.72 C 395.56 308.24 390.23 306.56 384.70 307.43 C 383.96 308.91 383.29 310.43 382.72 312.00 C 388.97 314.90 395.95 317.04 400.70 322.34 C 402.86 324.83 404.89 327.71 405.65 330.96 C 405.59 333.27 405.47 335.59 405.40 337.91 C 404.70 344.12 400.99 349.56 395.74 352.86 C 390.05 355.13 383.96 356.98 377.78 355.93 C 372.93 354.96 368.17 353.42 363.79 351.14 C 361.88 350.30 362.24 347.72 363.67 346.61 C 365.57 345.75 367.39 347.26 369.14 347.86 C 376.43 350.98 385.30 352.30 392.61 348.58 C 400.39 344.68 403.04 333.32 397.43 326.56 C 392.66 320.63 384.64 319.49 378.67 315.32 C 374.09 311.74 375.39 303.97 380.64 301.76 M 381.70 307.34 C 380.30 308.08 381.18 310.81 382.73 309.44 C 384.32 308.73 383.24 306.02 381.70 307.34 Z" />
</g>
<g id="#000000ff">
<path fill="#000000" opacity="1.00" d=" M 286.58 129.02 C 286.45 126.34 289.78 126.47 291.46 127.36 C 291.77 129.57 292.36 131.75 292.48 134.00 C 292.58 153.06 292.32 172.13 292.61 191.20 C 291.52 192.09 290.63 193.78 288.98 193.51 C 287.07 193.88 286.21 191.52 286.51 190.00 C 286.57 169.67 286.43 149.34 286.58 129.02 Z" />
<path fill="#000000" opacity="1.00" d=" M 92.97 289.22 C 96.60 288.53 100.32 288.78 104.00 288.75 C 114.68 288.75 125.37 288.77 136.05 288.73 C 137.55 288.65 139.01 289.01 140.44 289.45 C 140.61 290.18 140.94 291.64 141.11 292.37 C 137.42 294.51 133.07 294.03 128.99 294.03 C 118.60 293.95 108.21 293.97 97.82 294.08 C 96.23 294.02 94.65 293.76 93.08 293.54 C 92.77 292.11 92.71 290.66 92.97 289.22 Z" />
<path fill="#000000" opacity="1.00" d=" M 324.24 289.10 C 326.04 288.60 329.21 288.30 328.96 291.10 C 329.94 306.55 329.25 322.10 329.34 337.59 C 336.88 338.52 344.51 337.55 352.07 338.25 C 352.57 339.98 352.50 341.78 352.52 343.56 C 343.12 343.32 333.59 344.48 324.30 342.67 C 323.43 339.17 323.80 335.55 323.75 331.99 C 323.74 319.32 323.78 306.64 323.73 293.97 C 323.71 292.33 323.96 290.71 324.24 289.10 Z" />
<path fill="#000000" opacity="1.00" d=" M 120.59 301.56 C 127.12 300.58 133.91 300.75 140.46 301.47 C 140.63 302.19 140.96 303.62 141.13 304.33 C 136.63 307.93 130.40 305.62 125.12 306.26 C 124.83 322.52 125.08 338.79 125.00 355.05 C 123.65 355.36 122.29 355.47 120.91 355.38 C 119.72 351.01 120.45 346.45 120.27 342.00 C 120.47 328.52 119.85 315.02 120.59 301.56 Z" />
</g>
<g id="#010101ff">
<path fill="#010101" opacity="1.00" d=" M 299.98 126.59 C 301.23 126.76 302.47 126.95 303.71 127.16 C 303.92 128.83 304.07 130.51 304.07 132.20 C 303.98 134.85 303.99 137.50 304.07 140.16 C 305.37 138.63 306.68 137.11 307.84 135.47 C 310.13 132.43 312.01 128.95 315.04 126.57 C 316.78 126.36 317.86 127.70 318.81 128.94 C 315.02 135.56 309.44 140.97 305.69 147.62 C 304.90 149.28 303.23 150.17 301.86 151.27 C 300.96 150.53 299.03 150.38 299.11 148.90 C 298.80 143.94 299.11 138.96 298.99 133.99 C 299.08 131.51 298.52 128.80 299.98 126.59 Z" />
<path fill="#010101" opacity="1.00" d=" M 298.97 167.98 C 300.31 167.28 302.09 165.89 303.33 167.58 C 308.11 173.87 312.57 180.42 317.25 186.79 C 319.03 189.08 320.01 191.83 321.15 194.47 C 319.52 193.28 317.56 193.29 315.64 193.41 C 311.74 188.34 308.17 183.02 304.22 177.99 C 304.51 182.69 304.33 187.41 304.40 192.12 C 303.79 192.52 302.58 193.33 301.98 193.73 C 301.30 193.51 299.96 193.08 299.28 192.87 C 298.63 184.59 299.20 176.28 298.97 167.98 Z" />
<path fill="#010101" opacity="1.00" d=" M 311.59 291.04 C 311.36 288.56 315.00 287.92 316.29 289.63 C 317.17 292.32 317.58 295.16 317.50 298.00 C 317.41 315.21 317.58 332.42 317.41 349.63 C 328.86 351.41 340.62 349.18 352.09 350.81 C 352.32 352.20 352.49 353.61 352.63 355.02 C 353.39 355.51 354.15 356.00 354.91 356.51 C 343.58 356.46 332.25 356.49 320.93 356.49 C 317.83 356.52 314.91 355.33 311.84 355.04 C 311.24 350.38 311.59 345.68 311.51 341.00 C 311.57 324.35 311.40 307.69 311.59 291.04 Z" />
<path fill="#010101" opacity="1.00" d=" M 92.57 301.90 C 94.28 301.22 96.10 300.87 97.94 300.98 C 102.83 301.11 107.76 300.63 112.61 301.43 C 112.71 302.07 112.92 303.33 113.02 303.97 C 112.99 315.64 112.99 327.32 113.00 339.00 C 112.97 344.40 113.18 349.82 112.47 355.18 C 111.04 355.41 109.62 355.37 108.22 355.05 C 107.51 338.90 108.55 322.69 107.68 306.55 C 102.82 306.79 97.93 306.66 93.13 305.76 C 92.92 304.47 92.74 303.19 92.57 301.90 Z" />
</g>
<g id="#030303ff">
<path fill="#030303" opacity="1.00" d=" M 328.73 127.62 C 330.32 125.31 332.72 127.35 333.82 128.97 C 329.32 136.26 323.82 142.88 318.90 149.89 C 316.74 153.13 313.79 155.98 312.66 159.80 C 315.86 158.44 317.15 154.78 319.31 152.26 C 324.70 145.31 329.38 137.81 335.02 131.06 C 334.09 134.41 331.52 136.90 329.59 139.70 C 324.51 146.82 319.25 153.81 314.15 160.92 C 320.32 170.28 327.08 179.24 333.45 188.48 C 334.69 190.45 335.55 192.62 336.70 194.64 C 334.54 192.62 330.87 194.45 329.31 191.73 C 322.00 181.32 314.51 171.03 307.29 160.57 C 305.70 158.84 307.31 156.84 308.38 155.36 C 315.22 146.16 321.79 136.75 328.73 127.62 Z" />
<path fill="#030303" opacity="1.00" d=" M 245.21 312.12 C 248.33 305.26 255.41 300.38 263.01 300.32 C 273.03 299.30 281.92 306.78 285.38 315.75 C 285.50 319.37 285.40 322.99 285.35 326.61 C 284.03 332.33 280.43 337.22 275.77 340.70 C 271.62 342.34 267.40 343.95 262.92 344.33 C 255.50 343.09 248.28 338.96 245.15 331.86 C 245.02 329.81 247.15 329.08 248.78 328.76 C 251.01 331.32 252.82 334.36 255.71 336.28 C 259.84 338.79 265.10 339.15 269.66 337.66 C 275.70 335.45 280.19 329.49 280.42 323.02 C 281.24 314.60 274.04 304.92 264.94 306.49 C 260.45 307.23 256.26 310.04 253.65 313.78 C 252.95 314.77 252.08 315.62 250.93 316.08 C 252.81 312.14 256.57 309.75 259.72 306.97 L 259.92 305.84 C 254.94 307.11 251.73 311.20 248.96 315.22 C 248.26 315.13 246.86 314.94 246.16 314.85 C 245.77 313.96 245.45 313.05 245.21 312.12 Z" />
</g>
<g id="#828282ff">
<path fill="#828282" opacity="1.00" d=" M 147.43 133.65 C 147.82 132.39 148.21 131.13 148.55 129.87 C 149.35 130.63 150.15 131.40 150.96 132.16 C 147.46 141.75 143.33 151.10 139.54 160.58 C 137.29 165.70 135.65 171.09 132.95 176.01 C 132.20 176.01 130.70 176.02 129.95 176.02 C 130.13 175.64 130.50 174.90 130.68 174.52 C 134.37 171.04 135.34 165.54 136.37 160.76 C 136.48 160.50 136.68 160.00 136.78 159.74 C 139.19 156.58 140.61 152.84 142.01 149.16 C 143.93 144.03 146.69 139.14 147.43 133.65 Z" />
<path fill="#828282" opacity="1.00" d=" M 230.72 132.05 C 239.56 132.45 248.45 131.63 257.25 132.72 C 249.21 132.89 241.17 132.67 233.14 132.95 C 232.67 153.69 233.44 174.45 232.77 195.18 C 231.63 194.83 230.63 194.09 230.40 192.86 C 230.85 172.60 230.22 152.32 230.72 132.05 Z" />
<path fill="#828282" opacity="1.00" d=" M 250.50 295.64 C 256.44 292.26 263.71 292.36 270.25 293.60 C 260.09 294.06 249.29 297.50 243.15 306.12 C 236.54 314.98 236.16 326.80 238.92 337.14 C 236.43 332.98 234.72 328.21 234.97 323.30 C 235.83 317.21 237.23 311.00 240.83 305.90 C 243.38 301.88 247.51 299.29 250.50 295.64 Z" />
</g>
<g id="#9c9c9cff">
<path fill="#9c9c9c" opacity="1.00" d=" M 305.10 130.83 C 306.02 132.37 306.91 133.93 307.84 135.47 C 306.68 137.11 305.37 138.63 304.07 140.16 C 303.99 137.50 303.98 134.85 304.07 132.20 C 304.33 131.86 304.84 131.17 305.10 130.83 Z" />
</g>
<g id="#fafafaff">
<path fill="#fafafa" opacity="1.00" d=" M 147.43 133.65 C 146.69 139.14 143.93 144.03 142.01 149.16 C 140.61 152.84 139.19 156.58 136.78 159.74 C 140.14 150.97 143.64 142.24 147.43 133.65 Z" />
<path fill="#fafafa" opacity="1.00" d=" M 136.37 160.76 C 135.34 165.54 134.37 171.04 130.68 174.52 C 132.53 169.91 134.25 165.25 136.37 160.76 Z" />
<path fill="#fafafa" opacity="1.00" d=" M 272.60 178.99 C 272.36 183.79 269.37 188.33 264.72 189.91 C 268.21 186.97 271.01 183.27 272.60 178.99 Z" />
<path fill="#fafafa" opacity="1.00" d=" M 229.93 226.06 C 231.67 225.36 232.42 222.69 234.61 223.21 C 237.19 226.80 242.12 226.87 245.06 230.06 C 242.09 232.31 239.20 228.41 236.05 228.43 C 226.16 226.45 216.83 237.38 220.27 246.81 C 222.56 255.12 232.90 259.32 240.47 255.41 C 245.84 253.00 248.05 247.03 248.64 241.56 C 252.11 238.27 254.19 233.33 253.45 228.53 C 258.55 228.97 263.68 226.78 267.16 223.08 C 268.70 223.05 269.46 224.68 270.61 225.46 C 273.97 227.44 277.70 229.00 281.69 228.49 C 280.87 232.44 282.86 235.93 284.53 239.37 C 285.32 240.64 287.25 241.34 287.28 242.96 C 283.54 246.31 281.00 251.52 281.73 256.60 C 276.62 256.31 271.34 258.40 267.89 262.19 C 265.85 262.03 265.11 259.27 263.00 258.93 C 260.83 257.70 256.73 257.24 257.18 253.94 C 260.82 254.69 264.03 257.19 267.89 256.83 C 274.76 257.04 280.67 251.26 281.78 244.69 C 283.25 235.93 275.05 227.02 266.09 228.36 C 258.47 228.78 252.90 236.16 253.33 243.56 C 248.95 246.24 248.11 251.99 248.00 256.73 C 242.72 256.04 237.51 258.76 233.94 262.51 C 230.31 258.53 224.94 256.28 219.57 256.49 C 220.27 251.65 218.47 246.05 214.20 243.38 C 214.47 240.93 217.26 240.09 217.90 237.82 C 219.02 235.31 220.11 232.69 219.63 229.89 C 219.37 228.29 221.38 228.30 222.46 228.42 C 225.18 228.74 227.51 227.01 229.93 226.06 Z" />
<path fill="#fafafa" opacity="1.00" d=" M 155.66 316.95 C 157.09 306.10 165.32 296.63 175.90 293.79 C 171.10 296.49 166.14 299.31 162.69 303.73 C 159.48 307.62 157.76 312.43 155.66 316.95 Z" />
<path fill="#fafafa" opacity="1.00" d=" M 234.97 323.30 C 234.12 312.06 240.21 300.53 250.50 295.64 C 247.51 299.29 243.38 301.88 240.83 305.90 C 237.23 311.00 235.83 317.21 234.97 323.30 Z" />
<path fill="#fafafa" opacity="1.00" d=" M 368.54 306.89 C 369.46 302.20 372.18 297.92 376.39 295.53 C 373.85 299.37 371.04 303.02 368.54 306.89 Z" />
<path fill="#fafafa" opacity="1.00" d=" M 381.70 307.34 C 383.24 306.02 384.32 308.73 382.73 309.44 C 381.18 310.81 380.30 308.08 381.70 307.34 Z" />
<path fill="#fafafa" opacity="1.00" d=" M 285.35 326.61 C 285.82 332.67 281.74 339.12 275.77 340.70 C 280.43 337.22 284.03 332.33 285.35 326.61 Z" />
<path fill="#fafafa" opacity="1.00" d=" M 405.40 337.91 C 405.86 344.19 402.29 351.42 395.74 352.86 C 400.99 349.56 404.70 344.12 405.40 337.91 Z" />
</g>
<g id="#7f7f7fff">
<path fill="#7f7f7f" opacity="1.00" d=" M 187.20 134.91 C 187.80 136.39 188.38 137.87 188.94 139.36 C 186.08 144.06 184.44 149.34 182.32 154.38 C 177.45 166.19 172.69 178.05 167.87 189.88 C 167.10 191.52 166.59 193.53 164.70 194.23 C 164.93 190.38 166.96 187.00 168.30 183.48 C 172.81 172.32 177.37 161.17 181.97 150.05 C 183.13 147.38 184.27 144.64 184.40 141.69 C 184.47 141.43 184.62 140.93 184.69 140.68 C 186.72 140.77 188.00 138.01 186.23 136.75 C 186.47 136.29 186.96 135.37 187.20 134.91 Z" />
<path fill="#7f7f7f" opacity="1.00" d=" M 272.93 166.08 C 278.62 174.86 274.72 187.77 265.63 192.62 C 260.91 195.42 255.25 195.17 249.97 195.13 C 247.53 195.05 244.89 195.26 242.76 193.82 C 250.25 193.84 258.11 194.00 264.72 189.91 C 269.37 188.33 272.36 183.79 272.60 178.99 C 273.23 174.72 273.51 170.37 272.93 166.08 Z" />
<path fill="#7f7f7f" opacity="1.00" d=" M 125.12 306.26 C 130.40 305.62 136.63 307.93 141.13 304.33 C 141.82 305.43 142.51 306.52 143.18 307.64 C 138.10 307.81 133.02 307.63 127.94 307.87 C 127.58 324.30 128.15 340.75 127.66 357.18 C 126.77 356.48 125.89 355.76 125.00 355.05 C 125.08 338.79 124.83 322.52 125.12 306.26 Z" />
<path fill="#7f7f7f" opacity="1.00" d=" M 297.66 335.67 C 298.08 334.54 298.92 333.91 300.17 333.78 C 296.28 351.74 274.86 362.53 257.83 356.38 C 265.64 357.34 273.41 355.76 280.58 352.69 C 288.93 350.88 294.48 343.11 297.66 335.67 Z" />
</g>
<g id="#848484ff">
<path fill="#848484" opacity="1.00" d=" M 273.45 142.71 C 277.78 149.31 274.73 157.40 271.72 163.85 C 271.00 162.61 270.29 161.36 269.59 160.11 C 272.59 154.82 273.75 148.76 273.45 142.71 Z" />
</g>
<g id="#878787ff">
<path fill="#878787" opacity="1.00" d=" M 129.86 143.73 C 130.50 143.72 131.79 143.69 132.43 143.68 C 132.16 145.76 131.60 147.81 130.73 149.73 C 126.63 159.07 123.03 168.62 119.07 178.03 C 117.61 181.40 116.60 185.01 114.55 188.10 C 114.07 188.04 113.11 187.92 112.63 187.86 C 112.53 187.71 112.31 187.42 112.21 187.27 C 113.53 181.72 116.27 176.66 118.25 171.34 C 122.15 162.15 125.52 152.72 129.86 143.73 Z" />
<path fill="#878787" opacity="1.00" d=" M 261.05 171.93 C 264.77 175.46 261.34 181.93 256.78 182.58 C 253.42 183.31 250.15 182.00 246.97 181.09 C 249.94 181.00 253.23 181.54 255.88 179.84 C 258.79 178.21 259.75 174.78 261.05 171.93 Z" />
<path fill="#878787" opacity="1.00" d=" M 405.65 330.96 C 408.43 333.72 407.87 338.07 407.50 341.62 C 406.46 349.80 399.09 356.20 391.01 356.87 C 386.60 357.16 382.05 357.20 377.78 355.93 C 383.96 356.98 390.05 355.13 395.74 352.86 C 402.29 351.42 405.86 344.19 405.40 337.91 C 405.47 335.59 405.59 333.27 405.65 330.96 Z" />
</g>
<g id="#8f8f8fff">
<path fill="#8f8f8f" opacity="1.00" d=" M 260.87 146.79 C 261.72 148.01 262.93 149.26 262.71 150.89 C 262.65 156.52 254.83 160.50 250.60 156.63 C 252.72 156.20 254.79 155.57 256.90 155.12 C 258.93 155.35 260.58 153.57 259.49 151.63 C 259.94 150.01 260.39 148.40 260.87 146.79 Z" />
</g>
<g id="#ddddddff">
<path fill="#dddddd" opacity="1.00" d=" M 259.49 151.63 C 260.58 153.57 258.93 155.35 256.90 155.12 C 257.35 153.70 258.48 152.67 259.49 151.63 Z" />
</g>
<g id="#fdfdfdff">
<path fill="#fdfdfd" opacity="1.00" d=" M 112.21 187.27 C 112.31 187.42 112.53 187.71 112.63 187.86 L 112.10 187.78 L 112.21 187.27 Z" />
</g>
<g id="#a5a5a5ff">
<path fill="#a5a5a5" opacity="1.00" d=" M 179.12 187.01 C 184.24 187.35 189.38 187.08 194.50 187.32 C 194.71 187.64 195.14 188.28 195.35 188.60 C 190.93 188.59 186.52 188.50 182.12 188.79 C 181.30 190.47 180.53 192.18 179.58 193.80 C 178.09 194.28 177.55 192.70 176.74 191.82 C 177.54 190.22 178.34 188.62 179.12 187.01 Z" />
</g>
<g id="#070908ff">
<path fill="#070908" opacity="1.00" d=" M 231.42 220.44 C 233.12 220.41 234.82 220.41 236.53 220.46 C 238.85 224.99 244.84 224.89 247.60 228.98 C 248.12 231.86 245.00 233.26 243.07 234.66 C 239.50 231.95 234.90 229.42 230.36 231.40 C 222.77 233.63 219.74 244.09 224.99 250.02 C 229.00 255.28 237.48 255.86 242.07 251.05 C 245.10 248.26 245.50 243.94 245.73 240.07 C 249.65 237.65 251.30 232.93 250.45 228.51 C 251.47 227.50 252.44 226.45 253.56 225.54 C 255.66 225.10 257.95 225.97 259.93 224.86 C 262.36 224.25 263.82 222.18 265.35 220.38 C 267.03 220.40 268.70 220.44 270.38 220.51 C 272.32 224.76 277.37 226.06 281.67 225.33 C 282.75 226.77 284.96 227.84 284.64 229.92 C 284.19 233.21 285.44 236.85 288.13 238.88 C 290.41 240.24 289.29 243.18 289.45 245.34 C 287.54 246.52 285.95 248.11 285.28 250.31 C 283.48 252.74 286.03 256.29 283.29 258.22 C 281.95 260.30 279.43 259.53 277.38 259.72 C 274.45 260.24 271.98 261.93 270.37 264.41 C 268.45 264.90 265.78 265.40 264.40 263.60 C 261.82 260.19 256.84 260.09 254.34 256.58 C 253.33 253.68 256.13 251.98 258.03 250.44 C 262.25 253.05 267.42 256.08 272.36 253.28 C 279.70 250.28 281.72 239.55 275.73 234.26 C 271.12 229.19 262.30 229.86 258.38 235.40 C 256.02 238.22 256.13 242.03 255.38 245.43 C 252.40 247.94 249.72 252.05 251.41 256.02 C 249.97 257.59 248.72 260.32 246.15 259.73 C 242.85 259.23 239.49 260.85 237.52 263.48 C 236.19 265.49 233.49 264.54 231.49 264.72 C 229.42 261.61 225.92 259.28 222.05 259.68 C 219.50 260.29 217.69 258.04 216.72 256.00 C 217.00 252.81 216.61 249.17 214.05 246.94 C 211.30 245.15 211.03 240.51 213.75 238.61 C 215.89 236.75 217.03 233.82 216.73 231.01 C 216.20 228.67 218.13 226.90 219.77 225.57 C 222.01 225.07 224.48 225.98 226.57 224.69 C 228.78 224.06 230.04 222.10 231.42 220.44 M 229.93 226.06 C 227.51 227.01 225.18 228.74 222.46 228.42 C 221.38 228.30 219.37 228.29 219.63 229.89 C 220.11 232.69 219.02 235.31 217.90 237.82 C 217.26 240.09 214.47 240.93 214.20 243.38 C 218.47 246.05 220.27 251.65 219.57 256.49 C 224.94 256.28 230.31 258.53 233.94 262.51 C 237.51 258.76 242.72 256.04 248.00 256.73 C 248.11 251.99 248.95 246.24 253.33 243.56 C 252.90 236.16 258.47 228.78 266.09 228.36 C 275.05 227.02 283.25 235.93 281.78 244.69 C 280.67 251.26 274.76 257.04 267.89 256.83 C 264.03 257.19 260.82 254.69 257.18 253.94 C 256.73 257.24 260.83 257.70 263.00 258.93 C 265.11 259.27 265.85 262.03 267.89 262.19 C 271.34 258.40 276.62 256.31 281.73 256.60 C 281.00 251.52 283.54 246.31 287.28 242.96 C 287.25 241.34 285.32 240.64 284.53 239.37 C 282.86 235.93 280.87 232.44 281.69 228.49 C 277.70 229.00 273.97 227.44 270.61 225.46 C 269.46 224.68 268.70 223.05 267.16 223.08 C 263.68 226.78 258.55 228.97 253.45 228.53 C 254.19 233.33 252.11 238.27 248.64 241.56 C 248.05 247.03 245.84 253.00 240.47 255.41 C 232.90 259.32 222.56 255.12 220.27 246.81 C 216.83 237.38 226.16 226.45 236.05 228.43 C 239.20 228.41 242.09 232.31 245.06 230.06 C 242.12 226.87 237.19 226.80 234.61 223.21 C 232.42 222.69 231.67 225.36 229.93 226.06 Z" />
</g>
<g id="#0b0d0cff">
<path fill="#0b0d0c" opacity="1.00" d=" M 232.28 235.01 C 238.42 233.26 243.98 240.54 240.90 246.07 C 238.67 251.18 230.85 251.99 227.72 247.35 C 224.39 243.05 226.85 235.98 232.28 235.01 M 230.60 238.57 C 228.78 240.18 228.05 243.29 229.62 245.38 C 231.61 249.22 238.47 248.21 238.90 243.71 C 240.51 239.14 234.06 235.50 230.60 238.57 Z" />
</g>
<g id="#070707ff">
<path fill="#070707" opacity="1.00" d=" M 265.30 235.23 C 271.28 232.65 277.81 240.16 274.69 245.77 C 272.61 251.23 264.15 252.04 261.17 246.97 C 258.13 242.95 260.40 236.42 265.30 235.23 M 265.23 237.94 C 262.35 239.47 261.36 243.85 263.90 246.13 C 266.54 249.53 272.94 247.21 272.74 242.92 C 273.29 239.06 268.55 236.07 265.23 237.94 Z" />
</g>
<g id="#fcfefdff">
</g>
<g id="#fcfdfdff">
</g>
<g id="#7d7d7dff">
<path fill="#7d7d7d" opacity="1.00" d=" M 128.99 294.03 C 133.07 294.03 137.42 294.51 141.11 292.37 C 142.01 293.20 142.64 294.24 143.06 295.39 C 129.36 295.41 115.66 295.34 101.96 295.42 C 100.42 295.57 99.01 295.01 97.82 294.08 C 108.21 293.97 118.60 293.95 128.99 294.03 Z" />
<path fill="#7d7d7d" opacity="1.00" d=" M 175.90 293.79 C 181.22 292.25 186.93 292.67 192.28 293.86 C 185.40 293.67 178.30 294.77 172.28 298.25 C 163.80 303.03 158.26 312.34 157.63 322.00 C 157.20 326.73 158.04 331.44 158.82 336.09 C 155.65 330.32 154.25 323.43 155.66 316.95 C 157.76 312.43 159.48 307.62 162.69 303.73 C 166.14 299.31 171.10 296.49 175.90 293.79 Z" />
</g>
<g id="#818181ff">
<path fill="#818181" opacity="1.00" d=" M 376.39 295.53 C 381.07 292.27 387.12 293.59 392.28 294.74 C 386.22 294.53 379.60 295.65 375.38 300.41 C 371.14 304.53 370.59 310.69 370.55 316.27 C 369.07 313.42 367.43 310.14 368.54 306.89 C 371.04 303.02 373.85 299.37 376.39 295.53 Z" />
</g>
<g id="#838383ff">
<path fill="#838383" opacity="1.00" d=" M 113.02 303.97 C 114.44 305.31 115.96 306.81 115.63 308.96 C 115.62 324.95 115.68 340.95 115.59 356.94 C 114.55 356.35 113.51 355.75 112.47 355.18 C 113.18 349.82 112.97 344.40 113.00 339.00 C 112.99 327.32 112.99 315.64 113.02 303.97 Z" />
<path fill="#838383" opacity="1.00" d=" M 285.38 315.75 C 288.90 320.30 288.62 326.71 286.92 331.92 C 283.77 341.47 272.62 347.64 262.92 344.33 C 267.40 343.95 271.62 342.34 275.77 340.70 C 281.74 339.12 285.82 332.67 285.35 326.61 C 285.40 322.99 285.50 319.37 285.38 315.75 Z" />
<path fill="#838383" opacity="1.00" d=" M 218.60 334.59 C 219.03 334.33 219.89 333.82 220.32 333.56 C 219.67 339.54 215.90 344.65 211.73 348.75 C 203.01 357.23 189.34 360.44 177.86 356.31 C 183.03 356.69 188.36 356.88 193.39 355.40 C 197.76 354.27 201.67 351.95 205.61 349.83 C 212.71 347.93 215.30 340.30 218.60 334.59 Z" />
</g>
<g id="#868686ff">
<path fill="#868686" opacity="1.00" d=" M 205.93 316.03 C 211.25 324.63 207.54 336.88 199.14 342.13 C 194.46 345.31 188.27 346.08 182.93 344.27 C 189.61 344.24 195.56 341.02 200.65 336.95 C 203.11 335.80 204.43 333.50 204.61 330.85 C 205.81 326.01 206.67 321.02 205.93 316.03 Z" />
</g>
</svg>
